<?xml version="1.0" encoding="utf-8"?>
<!-- Generator: Adobe Illustrator 28.0.0, SVG Export Plug-In . SVG Version: 6.00 Build 0)  -->
<svg version="1.1" id="Camada_1" xmlns="http://www.w3.org/2000/svg" xmlns:xlink="http://www.w3.org/1999/xlink" x="0px" y="0px"
	 viewBox="0 0 800 164" style="enable-background:new 0 0 800 164;" xml:space="preserve">
<style type="text/css">
	.st0{fill:#ABD821;}
	.st1{fill:#0D4270;}
	.st2{fill:#3F3F3F;}
</style>
<g>
	<g>
		<g>
			<g>
				<path class="st2" d="M45,62.8c-1.5,0-2.1-0.7-2.1-2c0-1.3,0.7-2.1,2.1-2.1h19.2c1.7,0,2.5,0.8,2.5,2.5v25.3c0,2-0.7,2.9-3.7,4.2
					c-4.5,1.9-11.7,3.6-18.9,3.6c-21.8,0-35.8-14.7-35.8-37.7C8.3,33.3,22.2,19,43.4,19c7.6,0,14,1.9,19.4,5.3
					c2.7,1.7,3.8,2.9,3.8,3.9c0,1-1,2-2,2c-0.9,0-2-1.1-4.5-2.7c-4.4-2.8-10-4.5-16.7-4.5c-18.3,0-30.3,12.6-30.3,33.2
					C13.1,76.6,24.9,90,44.4,90c6.1,0,13-1.5,17.7-3.7V62.8H45z"/>
				<path class="st2" d="M130.8,92.6c0,0.8-0.8,1.2-2.1,1.2c-1.9,0-2.6-0.8-3.6-2.2l-20-27.9c-2.7,0.4-5.8,0.7-9.1,0.7
					c-1.5,0-4.9-0.1-6.8-0.3v27.7c0,1.5-0.7,2.1-2.1,2.1c-1.6,0-2.4-0.7-2.4-2.1V24.4c0-2.1,0-3.3,3.3-3.9c2.6-0.6,6.7-0.9,10.4-0.9
					c16.3,0,27.9,7.3,27.9,22.1c0,10.4-5.7,17.7-16.6,21l19.9,27.6C130.5,91.5,130.8,92.1,130.8,92.6z M96.2,60.3
					c17.1,0,25.4-6.8,25.4-18.5c0-12.6-9.4-18.2-23.2-18.2c-2.8,0-6.1,0.2-9.1,0.8V60C91.5,60.2,94,60.3,96.2,60.3z"/>
				<path class="st2" d="M189.4,77.9c1.3-3.5,2-7.7,2-12.8V21.9c0-1.5,0.7-2.1,2.1-2.1s2.2,0.7,2.2,2.1V65c0,5.9-0.8,11-2.4,14.9
					c-4.2,10.3-13.2,14.7-24.7,14.7c-11.4,0-20.6-4.4-24.8-14.7c-1.6-3.9-2.4-9-2.4-14.9V21.9c0-1.5,0.7-2.1,2.1-2.1
					c1.6,0,2.4,0.7,2.4,2.1v43.2c0,5.1,0.7,9.3,2,12.8c3.5,8.6,10.7,12.7,20.6,12.7C178.8,90.6,186.1,86.6,189.4,77.9z"/>
				<path class="st2" d="M229.2,68.8c-3.4,0-6.7-0.2-10-0.9v23.8c0,1.5-0.7,2.1-2.1,2.1c-1.6,0-2.4-0.7-2.4-2.1V24.4
					c0-2.1,0-3.3,3.3-3.9c2.6-0.6,7.1-0.9,10.7-0.9c16.5,0,28.8,7.7,28.8,24.5C257.4,60,246.4,68.8,229.2,68.8z M229,64.9
					c14.6,0,23.6-7.2,23.6-20.8c0-14.8-10.5-20.5-24.1-20.5c-2.6,0-5.8,0.2-9.3,0.8v39.5C222.7,64.6,226,64.9,229,64.9z"/>
				<path class="st2" d="M301.1,19c20.8,0,34.5,15.2,34.5,37.8s-13.7,37.8-34.5,37.8c-20.9,0-34.5-15.2-34.5-37.8S280.2,19,301.1,19
					z M301.1,90.6c17.8,0,29.5-13.6,29.5-33.8S318.9,23,301.1,23c-18,0-29.6,13.6-29.6,33.8S283.1,90.6,301.1,90.6z"/>
			</g>
		</g>
		<g>
			<g>
				<path class="st2" d="M365.8,40.8c0-13,10.5-21.7,25.5-21.7c7,0,13.5,1.9,18.3,4.9c3,1.9,4.4,3.6,4.4,6.2c0,3.8-3.3,8.6-7.2,8.6
					c-1.2,0-2.5-0.6-4.9-1.8c-3.6-1.8-6.7-3.1-10.6-3.1c-5.6,0-8.6,2.8-8.6,5.9c0,10,32.9,8.4,32.9,32.3c0,14-11.2,22.3-26.4,22.3
					c-7.4,0-14.5-2-19.4-5.5c-2.9-2-4.5-4-4.5-6.6c0-3.9,3.6-8.8,7.3-8.8c1.6,0,3,0.8,5.2,2c3.5,2,6.6,4,11.6,4
					c5.6,0,9.4-2.7,9.4-6.6C398.7,61.4,365.8,63.7,365.8,40.8z"/>
				<path class="st2" d="M486.6,89.1c0,2.7-2,4.7-8,4.7c-6.1,0-8.2-2-9.4-5.8l-3.4-10.2h-26.3L436.3,88c-1.2,3.8-3.5,5.8-9.2,5.8
					c-5.6,0-7.6-2-7.6-4.7c0-1.5,0.4-2.9,1.3-5.6l19.9-54.8c2.4-6.6,4.9-9,12.3-9c7.5,0,10.1,2.4,12.5,9l19.8,54.8
					C486.1,86.2,486.6,87.7,486.6,89.1z M461.1,63.6l-8.5-26.2l-8.4,26.2H461.1z"/>
				<path class="st2" d="M510.4,87.1c0,4.5-2.6,6.7-7.7,6.7c-5.2,0-7.7-2.2-7.7-6.7V28.9c0-6.2,3.8-9.1,11-9.1
					c6.8,0,10.5,2.6,13.1,7.2l24.8,44.4V26.5c0-4.5,2.6-6.7,7.7-6.7c5.2,0,7.7,2.2,7.7,6.7v58.2c0,6.1-3.5,9.1-10.5,9.1
					c-6.4,0-9.7-2.5-12.5-7.4l-25.9-45V87.1z"/>
				<path class="st2" d="M605.3,79.5c3.9,0,7.1-0.8,10.2-2.7c2.2-1.3,3.8-2.6,5.6-2.6c3.7,0,7.3,4.6,7.3,8.1c0,2.9-2.5,5.6-6.2,7.7
					c-4.8,2.8-11.1,4.5-18.1,4.5c-19.8,0-34.9-13.7-34.9-37.9c0-24.1,15-37.5,34.8-37.5c7.3,0,13.7,1.8,18.2,4.4
					c3.7,2.1,6.2,4.8,6.2,7.6c0,3.6-3.8,8.3-7.6,8.3c-1.8,0-3.4-1.2-5.6-2.6c-2.8-1.8-6.6-2.7-10.4-2.7c-9.8,0-18,6.5-18,22.3
					C586.8,72.4,595.2,79.5,605.3,79.5z"/>
				<path class="st2" d="M668.2,19c21.9,0,36,14.5,36,37.8s-14.1,37.8-36,37.8c-21.9,0-36-14.5-36-37.8S646.3,19,668.2,19z
					 M668.2,79.8c11.1,0,18.5-8.3,18.5-23s-7.4-23-18.5-23c-11.1,0-18.5,8.3-18.5,23S657.1,79.8,668.2,79.8z"/>
				<path class="st2" d="M729.7,87.1c0,4.5-2.6,6.7-7.7,6.7c-5.2,0-7.7-2.2-7.7-6.7V28.9c0-6.2,3.8-9.1,11-9.1
					c6.8,0,10.5,2.6,13.1,7.2l24.8,44.4V26.5c0-4.5,2.6-6.7,7.7-6.7s7.7,2.2,7.7,6.7v58.2c0,6.1-3.5,9.1-10.5,9.1
					c-6.4,0-9.7-2.5-12.5-7.4l-25.9-45V87.1z"/>
			</g>
		</g>
	</g>
</g>
</svg>
